<svg xmlns="http://www.w3.org/2000/svg" xmlns:xlink="http://www.w3.org/1999/xlink" width="2000" zoomAndPan="magnify" viewBox="0 0 1500 1499.999933" height="2000" preserveAspectRatio="xMidYMid meet" version="1.0"><defs><clipPath id="34facabe9a"><path d="M 53 337.925781 L 1447.15625 337.925781 L 1447.15625 874 L 53 874 Z M 53 337.925781 " clip-rule="nonzero"/></clipPath><clipPath id="d5a9abc808"><path d="M 823 1096 L 860 1096 L 860 1162.175781 L 823 1162.175781 Z M 823 1096 " clip-rule="nonzero"/></clipPath></defs><g clip-path="url(#34facabe9a)"><path fill="#000000" d="M 53.054688 865.292969 C 151.421875 757.652344 250.121094 649.660156 349.148438 541.316406 C 384.5 568.570312 415.839844 592.695312 446.664062 616.460938 C 547.382812 523.855469 646.980469 432.363281 749.75 337.925781 C 851.707031 431.257812 951.324219 522.480469 1053.371094 615.902344 C 1083.179688 592.878906 1114.316406 568.785156 1150.640625 540.707031 C 1249.710938 648.691406 1348.5 756.339844 1447.003906 863.644531 C 1445.691406 866.609375 1444.378906 869.566406 1443.066406 872.511719 C 981.414062 802.238281 519.933594 802.582031 58.617188 873.550781 C 56.777344 870.804688 54.914062 868.015625 53.054688 865.292969 Z M 709.234375 490.070312 C 706.730469 487.863281 704.191406 485.695312 701.679688 483.488281 L 755.101562 393.3125 C 752.160156 391.289062 749.191406 389.304688 746.261719 387.28125 C 660.074219 466.578125 573.878906 545.886719 487.683594 625.207031 C 490.335938 628.902344 493.023438 632.601562 495.625 636.304688 C 506.914062 629.761719 518.167969 623.214844 532.324219 615.019531 C 527.832031 622.605469 524.648438 627.992188 520 635.847656 C 529.539062 633.761719 535.628906 632.449219 543.328125 630.800781 C 537.492188 637.921875 532.964844 643.464844 528.832031 648.507812 C 585.066406 669.640625 620.351562 622.484375 666.957031 606.179688 L 666.957031 646.667969 C 703.792969 637.679688 737.828125 630.992188 770.804688 620.804688 C 795.484375 613.21875 818.570312 594.09375 842.761719 593.367188 C 865.023438 592.695312 876.484375 587.070312 889.695312 563.304688 C 867.339844 543.246094 844.929688 519.949219 819.273438 501.042969 C 794.539062 482.847656 765.730469 469.789062 768.546875 429.882812 L 760.320312 429.332031 C 743.328125 449.511719 726.300781 469.757812 709.234375 490.070312 Z M 240.066406 832.332031 C 317.496094 796.703125 390.296875 763.214844 466.71875 728.078125 C 446.878906 700.34375 412.628906 683.460938 414.304688 657.039062 C 415.742188 634.808594 351.84375 591.933594 358.710938 566.273438 C 342.417969 585.109375 342.417969 587.863281 325.234375 606.851562 C 275.8125 661.472656 224.996094 714.804688 174.894531 768.808594 C 169.117188 775.054688 164.289062 782.171875 159 788.875 C 176.980469 788.386719 250.707031 722.476562 194.285156 806.273438 C 212.191406 808.503906 240.679688 787.53125 240.066406 832.332031 Z M 1190.789062 761.230469 C 1211.066406 747.554688 1255.066406 761.75 1273.972656 749.019531 C 1271.246094 742.015625 1240.910156 703.480469 1233.457031 693.941406 C 1215.140625 670.640625 1194.535156 649.171875 1174.585938 627.183594 C 1169.96875 622.109375 1165.019531 616.421875 1158.996094 613.730469 C 1150.890625 610.117188 1141.597656 609.148438 1125.265625 605.226562 C 1114.292969 613.757812 1096.769531 627.429688 1069.734375 648.46875 C 1099.03125 673.882812 1125.328125 696.695312 1151.5625 719.570312 C 1154.410156 722.050781 1156.484375 726.269531 1159.699219 727.308594 C 1167.652344 729.871094 1176.058594 731.070312 1183.792969 732.71875 C 1186.324219 743.183594 1188.867188 753.402344 1190.789062 761.230469 Z M 1190.789062 761.230469 " fill-opacity="1" fill-rule="nonzero"/></g><path fill="#000000" d="M 114.609375 1064.929688 L 80.929688 904.132812 L 110.625 900.949219 L 130.101562 1002.605469 L 127.558594 899.148438 L 155.792969 896.09375 L 174.933594 997.785156 L 172.066406 894.355469 L 202.085938 891.140625 L 202.949219 1055.457031 L 166.554688 1059.375 L 150.566406 981.871094 L 151.726562 1060.984375 Z M 114.609375 1064.929688 " fill-opacity="1" fill-rule="nonzero"/><path fill="#000000" d="M 219.921875 1053.976562 L 221.570312 889.851562 L 273.097656 885.722656 L 300.675781 1047.519531 L 271.804688 1049.808594 L 267.554688 1023.601562 L 249.148438 1025.074219 L 249.484375 1051.589844 Z M 249.363281 998.9375 L 263.183594 997.835938 L 249.820312 915.480469 L 248.417969 915.601562 Z M 249.363281 998.9375 " fill-opacity="1" fill-rule="nonzero"/><path fill="#000000" d="M 314.800781 1037.09375 C 308.1875 1030.125 304.371094 1018.476562 303.355469 1002.148438 L 302.371094 986.183594 L 332.351562 984.351562 L 333.613281 1004.660156 C 334.132812 1012.765625 336.789062 1016.679688 341.617188 1016.375 C 344.34375 1016.191406 346.195312 1015.246094 347.128906 1013.46875 C 348.058594 1011.6875 348.441406 1008.789062 348.195312 1004.722656 C 347.859375 999.378906 347.003906 995.027344 345.59375 991.632812 C 344.386719 988.527344 342.695312 985.714844 340.519531 983.191406 C 338.535156 980.960938 335.046875 977.535156 330.003906 972.886719 L 315.976562 959.609375 C 305.15625 949.609375 299.335938 938.164062 298.515625 925.265625 C 297.660156 911.347656 299.988281 900.566406 305.492188 892.914062 C 310.996094 885.261719 319.488281 881.082031 330.964844 880.375 C 344.664062 879.519531 354.777344 882.800781 361.300781 890.21875 C 367.820312 897.636719 371.589844 909.632812 372.609375 926.210938 L 341.570312 928.140625 L 340.6875 916.945312 C 340.683594 916.011719 340.507812 915.113281 340.160156 914.246094 C 339.8125 913.378906 339.316406 912.609375 338.671875 911.933594 C 338.027344 911.316406 337.28125 910.871094 336.4375 910.585938 C 335.589844 910.304688 334.726562 910.210938 333.839844 910.3125 C 331.484375 910.464844 329.742188 911.261719 328.636719 912.726562 C 328.058594 913.578125 327.648438 914.5 327.40625 915.5 C 327.164062 916.5 327.109375 917.511719 327.234375 918.535156 C 327.570312 923.859375 330.75 929.203125 336.773438 934.558594 L 355.660156 951.625 C 359.632812 955.21875 363.3125 959.09375 366.695312 963.25 C 369.855469 967.285156 372.320312 971.710938 374.097656 976.519531 C 376.082031 981.65625 377.300781 987.863281 377.738281 995.082031 C 378.753906 1011.171875 376.765625 1023.523438 371.769531 1032.140625 C 366.785156 1040.765625 357.980469 1045.507812 345.320312 1046.277344 C 331.652344 1047.101562 321.410156 1044.070312 314.800781 1037.09375 Z M 314.800781 1037.09375 " fill-opacity="1" fill-rule="nonzero"/><path fill="#000000" d="M 386.359375 1042.210938 L 393.449219 878.265625 L 445.097656 875.855469 L 467.296875 1038.453125 L 438.367188 1039.796875 L 435.027344 1013.429688 L 416.550781 1014.285156 L 415.984375 1040.828125 Z M 417.609375 988.167969 L 431.460938 987.527344 L 420.777344 904.773438 L 419.375 904.835938 Z M 417.609375 988.167969 " fill-opacity="1" fill-rule="nonzero"/><path fill="#000000" d="M 489.253906 1037.714844 L 484.789062 905.742188 L 466.6875 906.351562 L 465.621094 874.976562 L 532.371094 872.6875 L 533.441406 904.0625 L 515.339844 904.671875 L 519.800781 1036.660156 Z M 489.253906 1037.714844 " fill-opacity="1" fill-rule="nonzero"/><path fill="#000000" d="M 554.539062 1025.9375 C 547.6875 1018.597656 544.125 1008.390625 543.855469 995.324219 L 542.207031 919.976562 C 541.839844 903.734375 544.59375 891.429688 550.464844 883.058594 C 556.332031 874.664062 565.726562 870.367188 578.625 870.085938 C 589.882812 869.839844 599.019531 872.941406 606.027344 879.382812 C 613.027344 885.839844 616.667969 895.257812 616.941406 907.703125 L 617.550781 935.867188 L 587.1875 936.542969 L 586.667969 912.382812 C 586.578125 907.703125 585.964844 904.460938 584.867188 902.71875 C 583.769531 900.980469 581.898438 900.117188 579.304688 900.179688 C 576.578125 900.238281 574.726562 901.308594 573.765625 903.359375 C 572.800781 905.414062 572.359375 908.40625 572.449219 912.320312 L 574.230469 994.273438 C 574.320312 998.585938 574.992188 1001.699219 576.222656 1003.660156 C 576.496094 1004.117188 576.832031 1004.53125 577.21875 1004.902344 C 577.609375 1005.269531 578.042969 1005.578125 578.515625 1005.828125 C 578.988281 1006.078125 579.488281 1006.261719 580.011719 1006.375 C 580.535156 1006.488281 581.066406 1006.53125 581.601562 1006.5 C 586.339844 1006.40625 588.605469 1002.21875 588.46875 993.996094 L 587.8125 964.507812 L 618.542969 963.835938 L 619.214844 994.660156 C 619.828125 1022.0625 607.277344 1036.035156 581.570312 1036.585938 C 570.414062 1036.8125 561.402344 1033.265625 554.539062 1025.9375 Z M 554.539062 1025.9375 " fill-opacity="1" fill-rule="nonzero"/><path fill="#000000" d="M 629.703125 1034.074219 L 628.175781 870.621094 L 658.570312 870.335938 L 659.121094 928.753906 L 673.519531 928.628906 L 672.972656 870.214844 L 703.367188 869.941406 L 704.894531 1033.402344 L 674.496094 1033.675781 L 673.824219 959.457031 L 659.425781 959.578125 L 660.097656 1033.796875 Z M 629.703125 1034.074219 " fill-opacity="1" fill-rule="nonzero"/><path fill="#000000" d="M 759.144531 1033.25 L 761.191406 869.789062 L 807.742188 870.367188 L 819.292969 970.246094 L 833.335938 870.710938 L 880.238281 871.292969 L 878.1875 1034.722656 L 850.292969 1034.386719 L 851.765625 916.617188 L 832.6875 1034.148438 L 805.320312 1033.8125 L 788.136719 915.800781 L 786.671875 1033.570312 Z M 759.144531 1033.25 " fill-opacity="1" fill-rule="nonzero"/><path fill="#000000" d="M 899.773438 1024.871094 C 893.625 1016.640625 890.75 1005.234375 891.152344 990.648438 L 893.378906 912.847656 C 893.777344 898.785156 897.285156 888.253906 903.902344 881.257812 C 910.523438 874.261719 919.980469 870.957031 932.277344 871.335938 C 944.605469 871.703125 953.859375 875.554688 960.039062 882.890625 C 966.222656 890.230469 969.117188 900.945312 968.722656 915.039062 L 966.496094 992.832031 C 966.070312 1007.542969 962.539062 1018.800781 955.910156 1026.59375 C 949.28125 1034.390625 939.804688 1038.117188 927.476562 1037.773438 C 915.15625 1037.386719 905.921875 1033.085938 899.773438 1024.871094 Z M 933.984375 1004.042969 C 935 1001.53125 935.582031 997.988281 935.703125 993.433594 L 937.992188 913.550781 C 938.175781 910.589844 937.820312 907.691406 936.925781 904.863281 C 936.101562 902.636719 934.320312 901.476562 931.582031 901.382812 C 926.476562 901.222656 923.8125 905.292969 923.601562 913.519531 L 921.3125 993.210938 C 921.1875 997.898438 921.617188 1001.460938 922.59375 1003.898438 C 923.601562 1006.339844 925.5 1007.597656 928.339844 1007.710938 C 928.945312 1007.761719 929.542969 1007.710938 930.132812 1007.5625 C 930.71875 1007.414062 931.269531 1007.171875 931.777344 1006.839844 C 932.285156 1006.507812 932.726562 1006.101562 933.101562 1005.621094 C 933.472656 1005.144531 933.757812 1004.617188 933.957031 1004.042969 Z M 933.984375 1004.042969 " fill-opacity="1" fill-rule="nonzero"/><path fill="#000000" d="M 984.75 1028.167969 C 978.976562 1020.324219 976.40625 1008.921875 977.042969 993.953125 L 982.148438 874.375 L 1011.78125 875.632812 L 1006.734375 993.929688 C 1006.523438 999.125 1006.828125 1003.195312 1007.621094 1006.140625 C 1007.757812 1006.808594 1008.007812 1007.429688 1008.363281 1008.011719 C 1008.722656 1008.589844 1009.167969 1009.089844 1009.703125 1009.511719 C 1010.238281 1009.9375 1010.828125 1010.253906 1011.476562 1010.46875 C 1012.121094 1010.679688 1012.785156 1010.777344 1013.46875 1010.757812 C 1016.519531 1010.878906 1018.601562 1009.535156 1019.671875 1006.757812 C 1020.738281 1003.980469 1021.378906 999.890625 1021.59375 994.546875 L 1026.644531 876.253906 L 1056.269531 877.503906 L 1051.164062 997.074219 C 1050.523438 1012.03125 1047 1023.183594 1040.589844 1030.53125 C 1034.179688 1037.878906 1024.699219 1041.28125 1012.148438 1040.742188 C 999.671875 1040.210938 990.539062 1036.015625 984.75 1028.167969 Z M 984.75 1028.167969 " fill-opacity="1" fill-rule="nonzero"/><path fill="#000000" d="M 1060.523438 1041.347656 L 1069.953125 878.167969 L 1101.363281 880.007812 L 1110.84375 958.90625 L 1115.367188 880.832031 L 1144.816406 882.542969 L 1135.363281 1045.71875 L 1105.554688 1044.011719 L 1095.046875 961.457031 L 1090.308594 1043.117188 Z M 1060.523438 1041.347656 " fill-opacity="1" fill-rule="nonzero"/><path fill="#000000" d="M 1161.371094 1047.589844 L 1171.128906 915.878906 L 1153.050781 914.535156 L 1155.339844 883.242188 L 1221.972656 888.164062 L 1219.679688 919.457031 L 1201.609375 918.105469 L 1191.851562 1049.816406 Z M 1161.371094 1047.589844 " fill-opacity="1" fill-rule="nonzero"/><path fill="#000000" d="M 1213.691406 1051.414062 L 1243.453125 890.003906 L 1294.917969 894.773438 L 1294.339844 1058.863281 L 1265.5 1056.175781 L 1265.804688 1029.632812 L 1247.398438 1027.914062 L 1243.179688 1054.09375 Z M 1252.160156 1002.210938 L 1265.949219 1003.492188 L 1266.894531 920.066406 L 1265.492188 919.945312 Z M 1252.160156 1002.210938 " fill-opacity="1" fill-rule="nonzero"/><path fill="#000000" d="M 1301.480469 1059.824219 L 1319.5 897.347656 L 1348.828125 900.613281 L 1330.785156 1063.058594 Z M 1301.480469 1059.824219 " fill-opacity="1" fill-rule="nonzero"/><path fill="#000000" d="M 1342.1875 1064.195312 L 1364.019531 902.207031 L 1395.179688 906.398438 L 1398.628906 985.769531 L 1409.089844 908.277344 L 1438.328125 912.222656 L 1416.492188 1074.226562 L 1386.921875 1070.25 L 1382.703125 987.128906 L 1371.78125 1068.234375 Z M 1342.1875 1064.195312 " fill-opacity="1" fill-rule="nonzero"/><path fill="#000000" d="M 638.601562 1161.167969 L 630.160156 1132.410156 L 624.933594 1132.410156 L 624.933594 1161.160156 L 613.429688 1161.160156 L 613.429688 1097.304688 L 629.625 1097.304688 C 640.476562 1097.304688 649.414062 1101.21875 649.414062 1114.550781 C 649.414062 1122.230469 646.359375 1127.335938 640.972656 1130.058594 L 650.421875 1161.191406 Z M 629.671875 1105.050781 L 624.960938 1105.050781 L 624.960938 1124.960938 L 629.058594 1124.960938 C 634.53125 1124.960938 637.867188 1122.207031 637.867188 1115.039062 C 637.835938 1107.59375 635.296875 1105.050781 629.671875 1105.050781 Z M 629.671875 1105.050781 " fill-opacity="1" fill-rule="nonzero"/><path fill="#000000" d="M 662.113281 1161.167969 L 662.113281 1097.304688 L 673.613281 1097.304688 L 673.613281 1161.191406 Z M 662.113281 1161.167969 " fill-opacity="1" fill-rule="nonzero"/><path fill="#000000" d="M 702.207031 1161.167969 L 688.042969 1161.167969 L 688.042969 1097.304688 L 703.488281 1097.304688 C 720.339844 1097.304688 724.925781 1108.988281 724.925781 1128.800781 C 724.925781 1150.675781 717.890625 1161.167969 702.207031 1161.167969 Z M 702.847656 1105.234375 L 699.542969 1105.234375 L 699.542969 1153.316406 L 702.597656 1153.316406 C 709.226562 1153.316406 713.171875 1147.933594 713.171875 1128.753906 C 713.179688 1110.523438 709.847656 1105.234375 702.886719 1105.234375 Z M 702.847656 1105.234375 " fill-opacity="1" fill-rule="nonzero"/><path fill="#000000" d="M 736.417969 1161.167969 L 736.417969 1097.304688 L 767.585938 1097.304688 L 767.585938 1105.347656 L 747.910156 1105.347656 L 747.910156 1123.511719 L 763.105469 1123.511719 L 763.105469 1131.554688 L 747.910156 1131.554688 L 747.910156 1153.175781 L 769.101562 1153.175781 L 769.101562 1161.222656 L 736.417969 1161.222656 Z M 736.417969 1161.167969 " fill-opacity="1" fill-rule="nonzero"/><path fill="#000000" d="M 804.0625 1161.167969 L 795.667969 1132.417969 L 790.441406 1132.417969 L 790.441406 1161.167969 L 778.925781 1161.167969 L 778.925781 1097.304688 L 795.132812 1097.304688 C 805.984375 1097.304688 814.914062 1101.21875 814.914062 1114.550781 C 814.914062 1122.230469 811.863281 1127.335938 806.472656 1130.058594 L 815.929688 1161.191406 Z M 795.132812 1105.050781 L 790.425781 1105.050781 L 790.425781 1124.960938 L 794.523438 1124.960938 C 799.996094 1124.960938 803.328125 1122.207031 803.328125 1115.039062 C 803.300781 1107.59375 800.757812 1105.050781 795.132812 1105.050781 Z M 795.132812 1105.050781 " fill-opacity="1" fill-rule="nonzero"/><g clip-path="url(#d5a9abc808)"><path fill="#000000" d="M 842.378906 1162.175781 C 831.398438 1162.175781 825.011719 1156.613281 823.597656 1145.660156 L 834.703125 1144.378906 C 835.863281 1151.507812 838.519531 1153.671875 842.332031 1153.671875 C 846.425781 1153.671875 848.4375 1151.75 848.4375 1147.835938 C 848.4375 1141.804688 845.625 1138.539062 836.816406 1130.769531 C 829.664062 1124.375 824.1875 1117.988281 824.1875 1110.675781 C 824.1875 1102.632812 829.941406 1096.242188 841.28125 1096.242188 C 852.902344 1096.242188 857.613281 1102.347656 859.289062 1110.742188 L 848.316406 1112.492188 C 847.035156 1107.101562 845.132812 1104.539062 841.449219 1104.539062 C 837.878906 1104.539062 835.824219 1106.371094 835.824219 1110.46875 C 835.824219 1114.933594 838.242188 1118.054688 845.273438 1124.261719 C 854.078125 1132.03125 859.953125 1138.972656 859.953125 1147.078125 C 859.992188 1155.695312 853.476562 1162.175781 842.378906 1162.175781 Z M 842.378906 1162.175781 " fill-opacity="1" fill-rule="nonzero"/></g><path fill="#000000" d="M 565.980469 1132.234375 C 566.101562 1139.484375 547.597656 1145.660156 524.695312 1145.972656 C 501.792969 1146.285156 483.140625 1140.714844 483.019531 1133.464844 C 482.925781 1128.390625 491.976562 1123.832031 505.28125 1121.453125 C 511.5625 1120.355469 517.890625 1119.773438 524.265625 1119.703125 C 547.207031 1119.390625 565.851562 1124.992188 565.980469 1132.234375 Z M 565.980469 1132.234375 " fill-opacity="1" fill-rule="nonzero"/><path fill="#000000" d="M 103.269531 1138.601562 L 524.703125 1145.996094 L 524.296875 1119.726562 Z M 103.269531 1138.601562 " fill-opacity="1" fill-rule="nonzero"/><path fill="#000000" d="M 898.300781 1136.945312 C 898.300781 1129.703125 918.304688 1123.792969 942.984375 1123.792969 C 967.664062 1123.792969 987.65625 1129.671875 987.65625 1136.945312 C 987.65625 1142.019531 977.835938 1146.421875 963.464844 1148.628906 C 956.671875 1149.632812 949.84375 1150.121094 942.976562 1150.09375 C 918.335938 1150.09375 898.300781 1144.226562 898.300781 1136.945312 Z M 898.300781 1136.945312 " fill-opacity="1" fill-rule="nonzero"/><path fill="#000000" d="M 1396.867188 1137.585938 L 943.015625 1123.824219 L 943.015625 1150.09375 Z M 1396.867188 1137.585938 " fill-opacity="1" fill-rule="nonzero"/></svg>