<svg xmlns="http://www.w3.org/2000/svg" xmlns:xlink="http://www.w3.org/1999/xlink" width="2000" zoomAndPan="magnify" viewBox="0 0 1500 1499.999933" height="2000" preserveAspectRatio="xMidYMid meet" version="1.0"><defs><clipPath id="3b2fab4c7a"><path d="M 53 337.925781 L 1447 337.925781 L 1447 874 L 53 874 Z M 53 337.925781 " clip-rule="nonzero"/></clipPath><clipPath id="13268dd257"><path d="M 823 1096 L 860 1096 L 860 1162.175781 L 823 1162.175781 Z M 823 1096 " clip-rule="nonzero"/></clipPath></defs><g clip-path="url(#3b2fab4c7a)"><path fill="#ffffff" d="M 53.054688 865.226562 C 151.417969 757.597656 250.109375 649.621094 349.136719 541.289062 C 384.480469 568.542969 415.820312 592.664062 446.644531 616.425781 C 547.355469 523.832031 646.949219 432.351562 749.714844 337.925781 C 851.664062 431.246094 951.28125 522.457031 1053.320312 615.867188 C 1083.128906 592.847656 1114.261719 568.753906 1150.585938 540.679688 C 1249.648438 648.652344 1348.433594 756.285156 1446.933594 863.578125 C 1445.621094 866.542969 1444.308594 869.5 1442.996094 872.445312 C 981.367188 802.179688 519.910156 802.523438 58.617188 873.480469 C 56.777344 870.734375 54.914062 867.949219 53.054688 865.226562 Z M 709.203125 490.050781 C 706.699219 487.84375 704.160156 485.675781 701.648438 483.472656 L 755.0625 393.304688 C 752.125 391.28125 749.15625 389.296875 746.226562 387.273438 C 660.042969 466.5625 573.855469 545.859375 487.660156 625.171875 C 490.316406 628.863281 493 632.566406 495.605469 636.265625 C 506.890625 629.726562 518.144531 623.179688 532.300781 614.984375 C 527.804688 622.570312 524.625 627.957031 519.976562 635.808594 C 529.515625 633.726562 535.605469 632.414062 543.304688 630.765625 C 537.46875 637.882812 532.941406 643.425781 528.804688 648.46875 C 585.039062 669.597656 620.324219 622.445312 666.925781 606.148438 L 666.925781 646.628906 C 703.761719 637.640625 737.796875 630.953125 770.769531 620.765625 C 795.449219 613.183594 818.53125 594.058594 842.722656 593.335938 C 864.980469 592.664062 876.441406 587.039062 889.652344 563.277344 C 867.300781 543.222656 844.886719 519.925781 819.234375 501.023438 C 794.5 482.832031 765.695312 469.773438 768.511719 429.871094 L 760.285156 429.320312 C 743.292969 449.5 726.265625 469.742188 709.203125 490.050781 Z M 240.058594 832.265625 C 317.480469 796.644531 390.28125 763.160156 466.699219 728.027344 C 446.855469 700.296875 412.609375 683.417969 414.289062 657 C 415.722656 634.769531 351.828125 591.898438 358.695312 566.246094 C 342.40625 585.078125 342.40625 587.832031 325.21875 606.816406 C 275.800781 661.433594 224.988281 714.757812 174.890625 768.753906 C 169.113281 774.996094 164.28125 782.117188 158.996094 788.816406 C 176.972656 788.328125 250.695312 722.425781 194.28125 806.214844 C 212.183594 808.445312 240.667969 787.472656 240.058594 832.265625 Z M 1190.730469 761.175781 C 1211.007812 747.503906 1255.007812 761.695312 1273.910156 748.96875 C 1271.183594 741.960938 1240.851562 703.433594 1233.394531 693.894531 C 1215.082031 670.597656 1194.480469 649.132812 1174.53125 627.148438 C 1169.914062 622.074219 1164.960938 616.386719 1158.941406 613.695312 C 1150.835938 610.085938 1141.542969 609.113281 1125.210938 605.191406 C 1114.238281 613.722656 1096.71875 627.390625 1069.683594 648.429688 C 1098.976562 673.839844 1125.273438 696.648438 1151.507812 719.519531 C 1154.355469 722 1156.429688 726.21875 1159.644531 727.257812 C 1167.59375 729.820312 1176.003906 731.019531 1183.734375 732.667969 C 1186.265625 743.128906 1188.808594 753.347656 1190.730469 761.175781 Z M 1190.730469 761.175781 " fill-opacity="1" fill-rule="nonzero"/></g><path fill="#ffffff" d="M 114.605469 1064.835938 L 80.929688 904.058594 L 110.621094 900.878906 L 130.097656 1002.523438 L 127.554688 899.078125 L 155.789062 896.023438 L 174.929688 997.699219 L 172.058594 894.285156 L 202.078125 891.070312 L 202.941406 1055.367188 L 166.550781 1059.28125 L 150.5625 981.789062 L 151.722656 1060.890625 Z M 114.605469 1064.835938 " fill-opacity="1" fill-rule="nonzero"/><path fill="#ffffff" d="M 219.914062 1053.886719 L 221.5625 889.78125 L 273.085938 885.652344 L 300.664062 1047.429688 L 271.796875 1049.71875 L 267.542969 1023.515625 L 249.140625 1024.988281 L 249.476562 1051.496094 Z M 249.351562 998.851562 L 263.171875 997.753906 L 249.808594 915.40625 L 248.40625 915.527344 Z M 249.351562 998.851562 " fill-opacity="1" fill-rule="nonzero"/><path fill="#ffffff" d="M 314.789062 1037.007812 C 308.175781 1030.035156 304.359375 1018.390625 303.339844 1002.0625 L 302.355469 986.101562 L 332.339844 984.269531 L 333.597656 1004.574219 C 334.117188 1012.679688 336.773438 1016.59375 341.601562 1016.289062 C 344.328125 1016.105469 346.183594 1015.160156 347.113281 1013.378906 C 348.042969 1011.601562 348.425781 1008.703125 348.179688 1004.636719 C 347.84375 999.292969 346.992188 994.945312 345.578125 991.546875 C 344.371094 988.445312 342.679688 985.632812 340.503906 983.109375 C 338.519531 980.878906 335.03125 977.453125 329.988281 972.808594 L 315.964844 959.527344 C 305.144531 949.53125 299.324219 938.085938 298.503906 925.191406 C 297.648438 911.277344 299.972656 900.492188 305.476562 892.84375 C 310.984375 885.191406 319.472656 881.011719 330.949219 880.304688 C 344.652344 879.449219 354.761719 882.730469 361.285156 890.148438 C 367.804688 897.566406 371.574219 909.5625 372.59375 926.136719 L 341.558594 928.066406 L 340.671875 916.871094 C 340.667969 915.9375 340.492188 915.039062 340.144531 914.171875 C 339.796875 913.304688 339.300781 912.535156 338.65625 911.859375 C 338.011719 911.246094 337.265625 910.796875 336.421875 910.511719 C 335.578125 910.230469 334.710938 910.140625 333.828125 910.242188 C 331.46875 910.394531 329.730469 911.1875 328.625 912.652344 C 328.046875 913.503906 327.636719 914.429688 327.394531 915.429688 C 327.152344 916.429688 327.09375 917.4375 327.21875 918.460938 C 327.554688 923.785156 330.734375 929.128906 336.757812 934.484375 L 355.644531 951.546875 C 359.617188 955.140625 363.296875 959.015625 366.679688 963.167969 C 369.839844 967.207031 372.304688 971.628906 374.082031 976.4375 C 376.066406 981.574219 377.285156 987.777344 377.722656 994.996094 C 378.738281 1011.082031 376.75 1023.4375 371.753906 1032.054688 C 366.769531 1040.675781 357.964844 1045.414062 345.304688 1046.1875 C 331.636719 1047.011719 321.398438 1043.980469 314.789062 1037.007812 Z M 314.789062 1037.007812 " fill-opacity="1" fill-rule="nonzero"/><path fill="#ffffff" d="M 386.34375 1042.117188 L 393.433594 878.199219 L 445.078125 875.785156 L 467.277344 1038.363281 L 438.347656 1039.707031 L 435.007812 1013.34375 L 416.53125 1014.195312 L 415.96875 1040.738281 Z M 417.59375 988.085938 L 431.441406 987.441406 L 420.757812 904.699219 L 419.355469 904.761719 Z M 417.59375 988.085938 " fill-opacity="1" fill-rule="nonzero"/><path fill="#ffffff" d="M 489.230469 1037.625 L 484.769531 905.667969 L 466.667969 906.28125 L 465.597656 874.910156 L 532.347656 872.621094 L 533.414062 903.992188 L 515.316406 904.601562 L 519.777344 1036.570312 Z M 489.230469 1037.625 " fill-opacity="1" fill-rule="nonzero"/><path fill="#ffffff" d="M 554.515625 1025.851562 C 547.664062 1018.507812 544.101562 1008.304688 543.832031 995.242188 L 542.183594 919.902344 C 541.816406 903.664062 544.570312 891.359375 550.441406 882.992188 C 556.308594 874.597656 565.703125 870.300781 578.597656 870.019531 C 589.855469 869.773438 598.992188 872.871094 606 879.3125 C 613 885.769531 616.640625 895.183594 616.914062 907.628906 L 617.523438 935.789062 L 587.160156 936.46875 L 586.640625 912.308594 C 586.550781 907.632812 585.9375 904.386719 584.839844 902.648438 C 583.742188 900.90625 581.871094 900.046875 579.277344 900.105469 C 576.554688 900.167969 574.699219 901.234375 573.738281 903.289062 C 572.777344 905.339844 572.332031 908.332031 572.425781 912.246094 L 574.203125 994.1875 C 574.292969 998.5 574.964844 1001.613281 576.195312 1003.574219 C 576.472656 1004.035156 576.804688 1004.449219 577.195312 1004.816406 C 577.582031 1005.183594 578.015625 1005.492188 578.488281 1005.742188 C 578.964844 1005.992188 579.460938 1006.175781 579.984375 1006.289062 C 580.511719 1006.402344 581.039062 1006.445312 581.574219 1006.414062 C 586.3125 1006.320312 588.578125 1002.132812 588.441406 993.914062 L 587.785156 964.429688 L 618.515625 963.757812 L 619.1875 994.578125 C 619.796875 1021.972656 607.25 1035.945312 581.542969 1036.496094 C 570.386719 1036.722656 561.378906 1033.175781 554.515625 1025.851562 Z M 554.515625 1025.851562 " fill-opacity="1" fill-rule="nonzero"/><path fill="#ffffff" d="M 629.671875 1033.984375 L 628.144531 870.550781 L 658.539062 870.269531 L 659.089844 928.675781 L 673.488281 928.554688 L 672.941406 870.148438 L 703.335938 869.871094 L 704.859375 1033.3125 L 674.464844 1033.585938 L 673.792969 959.375 L 659.394531 959.5 L 660.066406 1033.710938 Z M 629.671875 1033.984375 " fill-opacity="1" fill-rule="nonzero"/><path fill="#ffffff" d="M 759.109375 1033.160156 L 761.152344 869.71875 L 807.703125 870.300781 L 819.257812 970.167969 L 833.296875 870.644531 L 880.195312 871.222656 L 878.144531 1034.632812 L 850.253906 1034.296875 L 851.726562 916.542969 L 832.648438 1034.0625 L 805.285156 1033.726562 L 788.097656 915.726562 L 786.632812 1033.480469 Z M 759.109375 1033.160156 " fill-opacity="1" fill-rule="nonzero"/><path fill="#ffffff" d="M 899.730469 1024.78125 C 893.582031 1016.554688 890.707031 1005.148438 891.109375 990.5625 L 893.335938 912.773438 C 893.734375 898.710938 897.242188 888.183594 903.859375 881.191406 C 910.480469 874.195312 919.9375 870.886719 932.234375 871.269531 C 944.558594 871.636719 953.8125 875.488281 959.996094 882.824219 C 966.175781 890.160156 969.070312 900.871094 968.679688 914.964844 L 966.449219 992.746094 C 966.023438 1007.460938 962.496094 1018.710938 955.867188 1026.507812 C 949.238281 1034.300781 939.757812 1038.027344 927.433594 1037.683594 C 915.109375 1037.296875 905.878906 1032.996094 899.730469 1024.78125 Z M 933.941406 1003.957031 C 934.957031 1001.445312 935.535156 997.90625 935.660156 993.347656 L 937.949219 913.476562 C 938.132812 910.515625 937.777344 907.621094 936.878906 904.792969 C 936.054688 902.5625 934.273438 901.402344 931.539062 901.3125 C 926.433594 901.152344 923.769531 905.21875 923.554688 913.445312 L 921.265625 993.128906 C 921.144531 997.8125 921.570312 1001.375 922.550781 1003.8125 C 923.554688 1006.253906 925.457031 1007.511719 928.296875 1007.628906 C 928.902344 1007.675781 929.496094 1007.628906 930.085938 1007.476562 C 930.675781 1007.328125 931.222656 1007.085938 931.734375 1006.753906 C 932.242188 1006.421875 932.683594 1006.015625 933.054688 1005.539062 C 933.429688 1005.058594 933.714844 1004.53125 933.910156 1003.957031 Z M 933.941406 1003.957031 " fill-opacity="1" fill-rule="nonzero"/><path fill="#ffffff" d="M 984.703125 1028.078125 C 978.929688 1020.238281 976.359375 1008.835938 976.996094 993.867188 L 982.101562 874.304688 L 1011.730469 875.566406 L 1006.6875 993.84375 C 1006.472656 999.042969 1006.78125 1003.109375 1007.574219 1006.054688 C 1007.710938 1006.722656 1007.957031 1007.34375 1008.316406 1007.925781 C 1008.675781 1008.503906 1009.121094 1009.003906 1009.65625 1009.425781 C 1010.191406 1009.851562 1010.78125 1010.167969 1011.425781 1010.382812 C 1012.074219 1010.59375 1012.738281 1010.691406 1013.417969 1010.671875 C 1016.472656 1010.792969 1018.554688 1009.449219 1019.621094 1006.671875 C 1020.691406 1003.894531 1021.332031 999.804688 1021.546875 994.464844 L 1026.597656 876.183594 L 1056.21875 877.433594 L 1051.117188 996.988281 C 1050.472656 1011.945312 1046.949219 1023.097656 1040.539062 1030.445312 C 1034.128906 1037.789062 1024.648438 1041.191406 1012.097656 1040.652344 C 999.625 1040.121094 990.492188 1035.925781 984.703125 1028.078125 Z M 984.703125 1028.078125 " fill-opacity="1" fill-rule="nonzero"/><path fill="#ffffff" d="M 1060.472656 1041.257812 L 1069.902344 878.097656 L 1101.3125 879.9375 L 1110.789062 958.828125 L 1115.316406 880.761719 L 1144.761719 882.472656 L 1135.308594 1045.628906 L 1105.5 1043.917969 L 1094.992188 961.375 L 1090.253906 1043.027344 Z M 1060.472656 1041.257812 " fill-opacity="1" fill-rule="nonzero"/><path fill="#ffffff" d="M 1161.3125 1047.5 L 1171.074219 915.804688 L 1152.996094 914.460938 L 1155.285156 883.171875 L 1221.910156 888.09375 L 1219.621094 919.382812 L 1201.550781 918.03125 L 1191.792969 1049.726562 Z M 1161.3125 1047.5 " fill-opacity="1" fill-rule="nonzero"/><path fill="#ffffff" d="M 1213.632812 1051.320312 L 1243.394531 889.933594 L 1294.855469 894.703125 L 1294.277344 1058.769531 L 1265.4375 1056.082031 L 1265.742188 1029.542969 L 1247.339844 1027.824219 L 1243.117188 1054 Z M 1252.101562 1002.125 L 1265.890625 1003.40625 L 1266.835938 919.992188 L 1265.429688 919.871094 Z M 1252.101562 1002.125 " fill-opacity="1" fill-rule="nonzero"/><path fill="#ffffff" d="M 1301.417969 1059.730469 L 1319.433594 897.277344 L 1348.761719 900.542969 L 1330.722656 1062.964844 Z M 1301.417969 1059.730469 " fill-opacity="1" fill-rule="nonzero"/><path fill="#ffffff" d="M 1342.121094 1064.105469 L 1363.953125 902.136719 L 1395.113281 906.324219 L 1398.5625 985.6875 L 1409.023438 908.203125 L 1438.257812 912.148438 L 1416.425781 1074.132812 L 1386.855469 1070.15625 L 1382.636719 987.046875 L 1371.714844 1068.140625 Z M 1342.121094 1064.105469 " fill-opacity="1" fill-rule="nonzero"/><path fill="#ffffff" d="M 638.570312 1161.0625 L 630.128906 1132.308594 L 624.902344 1132.308594 L 624.902344 1161.054688 L 613.402344 1161.054688 L 613.402344 1097.207031 L 629.597656 1097.207031 C 640.449219 1097.207031 649.382812 1101.121094 649.382812 1114.453125 C 649.382812 1122.128906 646.332031 1127.234375 640.941406 1129.960938 L 650.390625 1161.085938 Z M 629.640625 1104.953125 L 624.933594 1104.953125 L 624.933594 1124.863281 L 629.03125 1124.863281 C 634.503906 1124.863281 637.835938 1122.105469 637.835938 1114.941406 C 637.808594 1107.492188 635.265625 1104.953125 629.640625 1104.953125 Z M 629.640625 1104.953125 " fill-opacity="1" fill-rule="nonzero"/><path fill="#ffffff" d="M 662.082031 1161.0625 L 662.082031 1097.207031 L 673.582031 1097.207031 L 673.582031 1161.085938 Z M 662.082031 1161.0625 " fill-opacity="1" fill-rule="nonzero"/><path fill="#ffffff" d="M 702.175781 1161.0625 L 688.011719 1161.0625 L 688.011719 1097.207031 L 703.457031 1097.207031 C 720.304688 1097.207031 724.890625 1108.890625 724.890625 1128.699219 C 724.890625 1150.570312 717.855469 1161.0625 702.175781 1161.0625 Z M 702.816406 1105.136719 L 699.511719 1105.136719 L 699.511719 1153.210938 L 702.5625 1153.210938 C 709.195312 1153.210938 713.140625 1147.832031 713.140625 1128.652344 C 713.148438 1110.421875 709.8125 1105.136719 702.851562 1105.136719 Z M 702.816406 1105.136719 " fill-opacity="1" fill-rule="nonzero"/><path fill="#ffffff" d="M 736.382812 1161.0625 L 736.382812 1097.207031 L 767.546875 1097.207031 L 767.546875 1105.25 L 747.875 1105.25 L 747.875 1123.410156 L 763.070312 1123.410156 L 763.070312 1131.453125 L 747.875 1131.453125 L 747.875 1153.074219 L 769.066406 1153.074219 L 769.066406 1161.117188 L 736.382812 1161.117188 Z M 736.382812 1161.0625 " fill-opacity="1" fill-rule="nonzero"/><path fill="#ffffff" d="M 804.023438 1161.0625 L 795.628906 1132.316406 L 790.402344 1132.316406 L 790.402344 1161.0625 L 778.886719 1161.0625 L 778.886719 1097.207031 L 795.097656 1097.207031 C 805.949219 1097.207031 814.875 1101.121094 814.875 1114.453125 C 814.875 1122.128906 811.824219 1127.234375 806.4375 1129.960938 L 815.890625 1161.085938 Z M 795.097656 1104.953125 L 790.386719 1104.953125 L 790.386719 1124.863281 L 794.484375 1124.863281 C 799.957031 1124.863281 803.292969 1122.105469 803.292969 1114.941406 C 803.261719 1107.492188 800.71875 1104.953125 795.097656 1104.953125 Z M 795.097656 1104.953125 " fill-opacity="1" fill-rule="nonzero"/><g clip-path="url(#13268dd257)"><path fill="#ffffff" d="M 842.339844 1162.070312 C 831.359375 1162.070312 824.972656 1156.507812 823.558594 1145.558594 L 834.664062 1144.273438 C 835.824219 1151.402344 838.480469 1153.570312 842.292969 1153.570312 C 846.382812 1153.570312 848.398438 1151.644531 848.398438 1147.730469 C 848.398438 1141.703125 845.582031 1138.4375 836.777344 1130.667969 C 829.625 1124.273438 824.148438 1117.886719 824.148438 1110.578125 C 824.148438 1102.535156 829.902344 1096.144531 841.242188 1096.144531 C 852.863281 1096.144531 857.570312 1102.25 859.25 1110.644531 L 848.277344 1112.390625 C 846.996094 1107.003906 845.09375 1104.441406 841.410156 1104.441406 C 837.835938 1104.441406 835.785156 1106.273438 835.785156 1110.371094 C 835.785156 1114.835938 838.203125 1117.957031 845.230469 1124.160156 C 854.039062 1131.929688 859.914062 1138.871094 859.914062 1146.976562 C 859.953125 1155.589844 853.433594 1162.070312 842.339844 1162.070312 Z M 842.339844 1162.070312 " fill-opacity="1" fill-rule="nonzero"/></g><path fill="#ffffff" d="M 565.953125 1132.132812 C 566.074219 1139.382812 547.570312 1145.558594 524.671875 1145.871094 C 501.769531 1146.183594 483.121094 1140.613281 482.996094 1133.363281 C 482.90625 1128.289062 491.957031 1123.730469 505.257812 1121.351562 C 511.539062 1120.257812 517.867188 1119.671875 524.242188 1119.605469 C 547.183594 1119.289062 565.824219 1124.890625 565.953125 1132.132812 Z M 565.953125 1132.132812 " fill-opacity="1" fill-rule="nonzero"/><path fill="#ffffff" d="M 103.265625 1138.5 L 524.679688 1145.890625 L 524.273438 1119.625 Z M 103.265625 1138.5 " fill-opacity="1" fill-rule="nonzero"/><path fill="#ffffff" d="M 898.257812 1136.84375 C 898.257812 1129.601562 918.261719 1123.695312 942.9375 1123.695312 C 967.617188 1123.695312 987.609375 1129.570312 987.609375 1136.84375 C 987.609375 1141.917969 977.789062 1146.320312 963.421875 1148.523438 C 956.628906 1149.53125 949.796875 1150.019531 942.929688 1149.992188 C 918.289062 1149.992188 898.257812 1144.121094 898.257812 1136.84375 Z M 898.257812 1136.84375 " fill-opacity="1" fill-rule="nonzero"/><path fill="#ffffff" d="M 1396.796875 1137.484375 L 942.96875 1123.722656 L 942.96875 1149.992188 Z M 1396.796875 1137.484375 " fill-opacity="1" fill-rule="nonzero"/></svg>